<?xml version="1.0" encoding="UTF-8" standalone="no"?>
<!-- Created with Inkscape (http://www.inkscape.org/) -->

<svg
   xmlns:dc="http://purl.org/dc/elements/1.1/"
   xmlns:cc="http://creativecommons.org/ns#"
   xmlns:rdf="http://www.w3.org/1999/02/22-rdf-syntax-ns#"
   xmlns:svg="http://www.w3.org/2000/svg"
   xmlns="http://www.w3.org/2000/svg"
   xmlns:sodipodi="http://sodipodi.sourceforge.net/DTD/sodipodi-0.dtd"
   xmlns:inkscape="http://www.inkscape.org/namespaces/inkscape"
   version="1.1"
   id="svg2"
   xml:space="preserve"
   width="1066.6667"
   height="206.22932"
   viewBox="0 0 1066.6667 206.22932"
   sodipodi:docname="logo_alterdata.svg"
   inkscape:version="0.92+devel unknown"><metadata
     id="metadata8"><rdf:RDF><cc:Work
         rdf:about=""><dc:format>image/svg+xml</dc:format><dc:type
           rdf:resource="http://purl.org/dc/dcmitype/StillImage" /><dc:title></dc:title></cc:Work></rdf:RDF></metadata><defs
     id="defs6"><clipPath
       clipPathUnits="userSpaceOnUse"
       id="clipPath18"><path
         d="M 0,154.672 H 800 V 0 H 0 Z"
         id="path16"
         inkscape:connector-curvature="0" /></clipPath></defs><sodipodi:namedview
     pagecolor="#ffffff"
     bordercolor="#666666"
     inkscape:document-rotation="0"
     borderopacity="1"
     objecttolerance="10"
     gridtolerance="10"
     guidetolerance="10"
     inkscape:pageopacity="0"
     inkscape:pageshadow="2"
     inkscape:window-width="1440"
     inkscape:window-height="848"
     id="namedview4"
     showgrid="false"
     inkscape:zoom="0.77832402"
     inkscape:cx="421.21054"
     inkscape:cy="186.09161"
     inkscape:window-x="0"
     inkscape:window-y="24"
     inkscape:window-maximized="1"
     inkscape:current-layer="g10" /><g
     id="g10"
     inkscape:groupmode="layer"
     inkscape:label="Logo_Alterdata"
     transform="matrix(1.3333333,0,0,-1.3333333,0,206.22933)"><g
       id="g12"
       style="fill:#1a1a1a"><g
         id="g14"
         clip-path="url(#clipPath18)"
         style="fill:#1a1a1a"><g
           id="g20"
           transform="translate(42.2322,72.0449)"
           style="fill:#1a1a1a"><path
             d="m 0,0 v 10.335 l 5.167,-5.17 z m 38.298,82.626 h -0.006 -0.007 -0.014 c -5.205,0 -9.859,-3.107 -11.851,-7.919 -1.995,-4.81 -0.904,-10.298 2.778,-13.98 L 44.959,44.957 35.033,35.031 -6.18,76.244 c -3.989,3.991 -9.293,6.186 -14.934,6.186 -11.643,0 -21.118,-9.475 -21.118,-21.118 V -50.906 c 0,-11.657 9.484,-21.139 21.139,-21.139 5.669,0 10.977,2.198 14.971,6.191 l 41.155,41.153 41.241,-41.238 c 3.938,-3.938 9.17,-6.106 14.737,-6.106 h 0.562 c 11.493,0 20.845,9.351 20.845,20.846 v 0.291 c 0,5.576 -2.174,10.813 -6.119,14.751 L 64.901,5.169 74.802,15.07 90.35,-0.497 c 2.45,-2.45 5.683,-3.799 9.101,-3.799 7.151,0 12.967,5.8 12.967,12.932 v 60.788 c 0,7.192 -5.854,13.055 -13.043,13.071 z M -7.081,-17.095 15.181,5.165 -7.081,27.427 v -44.522 m 45.352,92.638 h 0.014 l 61.074,-0.129 c 3.302,-0.007 5.978,-2.685 5.978,-5.99 V 8.636 c 0,-3.522 -2.881,-5.854 -5.886,-5.854 -1.435,0 -2.9,0.534 -4.09,1.724 L 74.804,25.086 54.885,5.165 l 46.413,-46.33 c 2.586,-2.584 4.039,-6.087 4.039,-9.743 v -0.291 c 0,-7.601 -6.163,-13.765 -13.764,-13.765 h -0.562 c -3.649,0 -7.15,1.451 -9.732,4.03 L 35.033,-14.685 -11.13,-60.848 c -2.637,-2.637 -6.212,-4.116 -9.94,-4.116 h -0.023 c -7.763,0 -14.058,6.293 -14.058,14.058 V 61.312 c 0,7.753 6.286,14.037 14.037,14.037 3.723,0 7.294,-1.479 9.926,-4.111 L 35.033,25.017 54.97,44.957 34.206,65.73 c -3.622,3.626 -1.054,9.813 4.065,9.813"
             style="fill:#1a1a1a;fill-opacity:1;fill-rule:nonzero;stroke:none"
             id="path22"
             inkscape:connector-curvature="0" /></g><g
           id="g24"
           transform="translate(330.6414,61.187)"
           style="fill:#1a1a1a"><path
             d="M 0,0 V 44.183 H 20.231 V 55.171 H 0 v 19.704 h -2.859 c -4.194,0 -7.654,-2.944 -7.915,-6.63 l -0.023,-0.016 V -2.455 c 0,-14.425 6.54,-21.635 19.618,-21.635 h 7.572 v 10.917 H 9.429 C 3.141,-13.173 0,-7.488 0,0"
             style="fill:#1a1a1a;fill-opacity:1;fill-rule:nonzero;stroke:none"
             id="path26"
             inkscape:connector-curvature="0" /></g><g
           id="g28"
           transform="translate(697.2405,136.0112)"
           style="fill:#1a1a1a"><path
             d="m 0,0 h -2.938 c -4.328,0 -7.871,-2.942 -8.146,-6.623 l -0.02,-0.017 v -70.651 c 0,-14.416 6.724,-21.624 20.167,-21.624 h 7.785 v 10.913 H 9.699 C 3.227,-88.002 0,-82.319 0,-74.836 v 44.159 h 20.792 v 10.985 H 0 Z"
             style="fill:#1a1a1a;fill-opacity:1;fill-rule:nonzero;stroke:none"
             id="path30"
             inkscape:connector-curvature="0" /></g><g
           id="g32"
           transform="translate(493.5897,116.5615)"
           style="fill:#1a1a1a"><path
             d="m 0,0 h -14.606 c -13.559,0 -20.328,-7.268 -20.328,-21.786 v -57.679 h 10.987 v 57.159 c 0,7.545 3.256,11.31 9.778,11.31 l 14.169,0 z"
             style="fill:#1a1a1a;fill-opacity:1;fill-rule:nonzero;stroke:none"
             id="path34"
             inkscape:connector-curvature="0" /></g><g
           id="g36"
           transform="translate(565.8011,48.1172)"
           style="fill:#1a1a1a"><path
             d="m 0,0 h -18.852 c -15.366,0 -29.368,13.677 -29.368,28.583 0,14.913 14.002,28.327 29.368,28.327 H 0 Z M 0,80.755 V 68.097 h -20.765 c -21.606,-0.966 -38.809,-18.312 -38.809,-39.514 0,-21.202 17.203,-38.641 38.809,-39.604 H 11.418 V 87.894 H 8.502 C 3.829,87.894 0,84.684 0,80.755"
             style="fill:#1a1a1a;fill-opacity:1;fill-rule:nonzero;stroke:none"
             id="path38"
             inkscape:connector-curvature="0" /></g><g
           id="g40"
           transform="translate(788.8284,48.2187)"
           style="fill:#1a1a1a"><path
             d="m 0,0 h -18.466 c -15.047,0 -28.764,13.804 -28.764,28.847 0,15.054 13.717,28.59 28.764,28.59 H 0 Z m -20.347,68.726 c -19.865,0 -38,-18.481 -38,-39.879 0,-21.396 16.85,-38.997 38,-39.968 h 31.519 v 79.847 z"
             style="fill:#1a1a1a;fill-opacity:1;fill-rule:nonzero;stroke:none"
             id="path42"
             inkscape:connector-curvature="0" /></g><g
           id="g44"
           transform="translate(241.4608,48.2187)"
           style="fill:#1a1a1a"><path
             d="m 0,0 h -18.465 c -15.048,0 -28.766,13.804 -28.766,28.847 0,15.054 13.718,28.59 28.766,28.59 H 0 Z m -20.347,68.726 c -19.865,0 -38,-18.481 -38,-39.879 0,-21.396 16.85,-38.997 38,-39.968 h 31.518 v 79.847 z"
             style="fill:#1a1a1a;fill-opacity:1;fill-rule:nonzero;stroke:none"
             id="path46"
             inkscape:connector-curvature="0" /></g><g
           id="g48"
           transform="translate(374.889,83.9814)"
           style="fill:#1a1a1a"><path
             d="m 0,0 c 3.066,12.336 13.693,21.451 26.385,21.451 12.674,0 23.3,-9.115 26.365,-21.451 z m 26.395,32.369 c -20.823,0 -37.68,-17.743 -37.68,-39.63 0,-21.812 16.739,-39.496 37.446,-39.623 v 0.005 h 27.837 v 10.915 H 26.161 C 12.359,-35.851 1.038,-25.033 -0.664,-10.98 h 64.523 c 0.106,1.223 0.171,2.461 0.171,3.719 0,21.887 -16.857,39.63 -37.635,39.63"
             style="fill:#1a1a1a;fill-opacity:1;fill-rule:nonzero;stroke:none"
             id="path50"
             inkscape:connector-curvature="0" /></g><g
           id="g52"
           transform="translate(283.1321,58.5551)"
           style="fill:#1a1a1a"><path
             d="m 0,0 v 77.457 h -3.834 c -3.917,0 -7.151,-2.667 -7.393,-6.02 L -11.25,71.43 V -1.816 c 0,-13.097 6.108,-19.642 18.329,-19.642 h 9.754 v 11.243 H 8.816 C 2.937,-10.215 0,-6.808 0,0"
             style="fill:#1a1a1a;fill-opacity:1;fill-rule:nonzero;stroke:none"
             id="path54"
             inkscape:connector-curvature="0" /></g><g
           id="g56"
           transform="translate(655.1263,105.3227)"
           style="fill:#1a1a1a"><path
             d="m 0,0 v -57.155 h -18.377 c -14.972,0 -28.627,13.735 -28.627,28.706 0,14.98 13.655,28.449 28.627,28.449 z m -58.065,-28.449 c 0,-21.294 16.773,-38.81 37.817,-39.776 h 31.375 v 79.463 h -31.375 c -19.77,0 -37.817,-18.393 -37.817,-39.687"
             style="fill:#1a1a1a;fill-opacity:1;fill-rule:nonzero;stroke:none"
             id="path58"
             inkscape:connector-curvature="0" /></g></g></g></g></svg>